<svg width="62" height="62" viewBox="0 0 62 62" fill="none" xmlns="http://www.w3.org/2000/svg">
<path fill-rule="evenodd" clip-rule="evenodd" d="M28.5979 57.4077C29.712 59.6146 32.8675 59.6023 33.9644 57.3868L59.2444 6.33119C60.2317 4.33719 58.781 2 56.5559 2H5.50027C3.26504 2 1.81484 4.35668 2.82221 6.35204L28.5979 57.4077ZM35.7567 58.2743C33.9285 61.9667 28.6694 61.9872 26.8125 58.309L1.03684 7.2534C-0.642104 3.9278 1.77489 0 5.50027 0H56.5559C60.2643 0 62.6823 3.89532 61.0367 7.21865L35.7567 58.2743ZM20.65 26.4C19.8667 27.7 19.475 29.225 19.475 30.975C19.475 34.025 20.5417 36.35 22.675 37.95C24.8083 39.55 27.9333 40.35 32.05 40.35H40.275V6H37.075V21.225H31.725L21.775 6H17.775L28.325 21.475C26.6583 21.825 25.1583 22.4083 23.825 23.225C22.4917 24.0583 21.4333 25.1167 20.65 26.4ZM25.05 36.05C23.6833 35.0333 23 33.3417 23 30.975C23 28.425 23.75 26.6167 25.25 25.55C26.7333 24.5 28.8167 23.975 31.5 23.975H37.075V37.6H31.4C28.5167 37.6 26.4 37.0833 25.05 36.05Z" fill="#969696"/>
</svg>
