<svg width="62" height="62" viewBox="0 0 62 62" fill="#FAEDF0" xmlns="http://www.w3.org/2000/svg">
<path fill-rule="evenodd" clip-rule="evenodd" d="M28.5979 4.59231C29.712 2.38544 32.8675 2.3977 33.9644 4.61315L59.2444 55.6688C60.2318 57.6628 58.781 60 56.556 60H5.50029C3.26506 60 1.81487 57.6433 2.82223 55.648L28.5979 4.59231ZM35.7568 3.72569C33.9285 0.0332701 28.6694 0.0128481 26.8125 3.69095L1.03686 54.7466C-0.642083 58.0722 1.77491 62 5.50029 62H56.556C60.2644 62 62.6823 58.1047 61.0368 54.7813L35.7568 3.72569ZM37.6 37.7L42.35 50H45.35L31.65 14.2H29.05L15 50H17.95L22.75 37.7H37.6ZM31.45 20.85C31.65 21.4167 31.8 21.8667 31.9 22.2L36.7 35.1H23.75L28.65 22.25C28.8167 21.8167 28.9834 21.3333 29.15 20.8C29.35 20.2667 29.5334 19.7 29.7 19.1C29.9 18.5 30.0834 17.9167 30.25 17.35C30.45 17.85 30.65 18.4167 30.85 19.05C31.05 19.6833 31.25 20.2833 31.45 20.85Z" fill="#969696"/>
</svg>
